# xmcd CD database file
#
# Track frame offsets:
#	150
#	12542
#	27498
#	36624
#	48221
#	58635
#	72928
#	86885
#	99142
#	111771
#	126979
#	142158
#	157482
#	167666
#	179940
#	191690
#	204787
#	219322
#	231476
#	243291
#	264325
#	278097
#
# Disc length: 3834 seconds
#
# Revision: 2
# Processed by: cddbd v1.5.1PL0 Copyright (c) Steve Scherf et al.
# Submitted via: CDex 1.51
#
DISCID=510ef816
DTITLE=Various Artist - 090 Country Forever CD2
DYEAR=1900
DGENRE=Country
TTITLE0=Frankie Laine - High Noon
TTITLE1=Jeff Turner - Wanderin' Star
TTITLE2=Frankie Laine - Rawhide
TTITLE3=Henson Cargill - Skip A Rope
TTITLE4=Mel McDaniel - Louisiana Saturday Night
TTITLE5=Country Dance Kings - Chattahoochee
TTITLE6=Krüger Brothers - One More Ride
TTITLE7=Kenny Rogers - Reuben James
TTITLE8=Johnny Cash - Folsom Prison Blues
TTITLE9=Cal Smith - It's Time To Pay The Fiddler
TTITLE10=Country Dance Kings - Achy Breaky Heart
TTITLE11=Jeff Turner - There's Music In The Mountains
TTITLE12=Frankie Laine - Mule Skinner Blues
TTITLE13=Tommy Cash - Six White Horses
TTITLE14=Charlie Walker - Don't Squeeze My Sharmon
TTITLE15=Ray Kennedy - What A Way To Go
TTITLE16=Johnny Paycheck - I'm The Only Hell
TTITLE17=Mark Gray - Diamond In The Dust
TTITLE18=Hank Williams - Long Gong Lonesome Blues
TTITLE19=Andre Lamberz - The Bluest Eyes Of Texas
TTITLE20=Warner Mack - Amazing Grace
TTITLE21=Eddie Jones - Deep In The Heart Of Texas
EXTD=
EXTT0=
EXTT1=
EXTT2=
EXTT3=
EXTT4=
EXTT5=
EXTT6=
EXTT7=
EXTT8=
EXTT9=
EXTT10=
EXTT11=
EXTT12=
EXTT13=
EXTT14=
EXTT15=
EXTT16=
EXTT17=
EXTT18=
EXTT19=
EXTT20=
EXTT21=
PLAYORDER=
